<svg xmlns="http://www.w3.org/2000/svg" version="1.1" width="61mm" height="62mm" viewBox="174 42 61 62">
<title>SVG Image created as Header+EWOD CHIP V3-F_Cu.svg date 2026/10/04 14:45:30 </title>
  <desc>Image generated by PCBNEW </desc>
<g style="fill:#000000; fill-opacity:1.0000;stroke:#000000; stroke-opacity:1.0000; stroke-linecap:round; stroke-linejoin:round;" transform="translate(0 0) scale(1 1)">
</g>
<g style="fill:#000000; fill-opacity:1.0000;  stroke:#000000; stroke-width:0.0212; stroke-opacity:1;  stroke-linecap:round; stroke-linejoin:round;">
<rect x="142.722746" y="40.049912" width="127.305000" height="65.930000" rx="0.000000" />
<path style="fill:#FFFFFF; fill-opacity:1.0000;  stroke:#FFFFFF; stroke-width:0.2000; stroke-opacity:1;  stroke-linecap:round; stroke-linejoin:round;fill-rule:evenodd;" d="M 204.7562,70.3183 204.7512,71.1033 203.9992,71.3403 203.2674,71.0897 203.2714,69.5899 203.9887,69.8315 204.7544,69.5899 Z" /> 
<path style="fill:#FFFFFF; fill-opacity:1.0000;  stroke:#FFFFFF; stroke-width:0.2000; stroke-opacity:1;  stroke-linecap:round; stroke-linejoin:round;fill-rule:evenodd;" d="M 208.5068,54.9722 208.2672,55.6837 208.5088,56.4494 207.7804,56.4512 207.0018,56.4610 206.7634,55.6912 207.0071,54.9682 Z" /> 
<path style="fill:#FFFFFF; fill-opacity:1.0000;  stroke:#FFFFFF; stroke-width:0.2000; stroke-opacity:1;  stroke-linecap:round; stroke-linejoin:round;fill-rule:evenodd;" d="M 214.9557,76.4324 215.0094,76.4544 218.2927,76.3357 218.2305,79.5048 214.8278,79.3803 208.4889,81.3642 208.5798,78.7754 212.3680,78.7754 212.3680,76.6564 208.5873,76.6564 208.5909,74.3129 Z" /> 
<path style="fill:#FFFFFF; fill-opacity:1.0000;  stroke:#FFFFFF; stroke-width:0.2000; stroke-opacity:1;  stroke-linecap:round; stroke-linejoin:round;fill-rule:evenodd;" d="M 206.4753,80.5899 206.4713,82.0897 205.7598,81.8501 204.9941,82.0917 204.9923,81.3632 204.9825,80.5847 205.7523,80.3462 Z" /> 
<path style="fill:#FFFFFF; fill-opacity:1.0000;  stroke:#FFFFFF; stroke-width:0.2000; stroke-opacity:1;  stroke-linecap:round; stroke-linejoin:round;fill-rule:evenodd;" d="M 203.5049,76.9860 203.9449,77.1350 204.4899,76.9650 204.6469,76.9110 204.7759,76.8730 204.5029,77.6860 204.5219,77.7040 204.7559,78.4490 203.9629,78.4270 203.1349,78.4440 203.3779,77.6620 203.1119,76.8300 Z" /> 
<path style="fill:#FFFFFF; fill-opacity:1.0000;  stroke:#FFFFFF; stroke-width:0.2000; stroke-opacity:1;  stroke-linecap:round; stroke-linejoin:round;fill-rule:evenodd;" d="M 204.7562,72.1366 204.7512,72.9216 203.9992,73.1586 203.2674,72.9079 203.2714,71.4081 203.9887,71.6498 204.7544,71.4081 Z" /> 
<path style="fill:#FFFFFF; fill-opacity:1.0000;  stroke:#FFFFFF; stroke-width:0.2000; stroke-opacity:1;  stroke-linecap:round; stroke-linejoin:round;fill-rule:evenodd;" d="M 199.5842,55.7158 199.3385,56.4446 197.8387,56.4406 198.0803,55.7233 197.8387,54.9576 198.5672,54.9558 199.3437,54.9425 Z" /> 
<path style="fill:#FFFFFF; fill-opacity:1.0000;  stroke:#FFFFFF; stroke-width:0.2000; stroke-opacity:1;  stroke-linecap:round; stroke-linejoin:round;fill-rule:evenodd;" d="M 204.7908,57.5639 204.8041,58.3404 204.0308,58.5809 203.3368,58.3470 203.3408,56.8472 204.0234,57.0771 204.7891,56.8355 Z" /> 
<path style="fill:#FFFFFF; fill-opacity:1.0000;  stroke:#FFFFFF; stroke-width:0.2000; stroke-opacity:1;  stroke-linecap:round; stroke-linejoin:round;fill-rule:evenodd;" d="M 206.4885,84.2395 206.4995,85.6777 205.7085,85.6567 204.9965,85.6637 205.0056,85.0128 204.9958,84.2342 205.7656,83.9958 Z" /> 
<path style="fill:#FFFFFF; fill-opacity:1.0000;  stroke:#FFFFFF; stroke-width:0.2000; stroke-opacity:1;  stroke-linecap:round; stroke-linejoin:round;fill-rule:evenodd;" d="M 201.2237,77.6824 200.9800,78.4053 199.4803,78.4013 199.7199,77.6899 199.4783,76.9242 200.2067,76.9224 200.9853,76.9126 Z" /> 
<path style="fill:#FFFFFF; fill-opacity:1.0000;  stroke:#FFFFFF; stroke-width:0.2000; stroke-opacity:1;  stroke-linecap:round; stroke-linejoin:round;fill-rule:evenodd;" d="M 204.8664,54.9399 204.6144,55.6819 204.8614,56.5019 204.0234,56.7489 203.2824,56.5049 203.5604,55.6819 203.3085,54.9029 Z" /> 
<path style="fill:#FFFFFF; fill-opacity:1.0000;  stroke:#FFFFFF; stroke-width:0.2000; stroke-opacity:1;  stroke-linecap:round; stroke-linejoin:round;fill-rule:evenodd;" d="M 201.2902,66.7248 201.0465,67.4477 199.5468,67.4437 199.7864,66.7323 199.5448,65.9666 200.2732,65.9648 201.0518,65.9550 Z" /> 
<path style="fill:#FFFFFF; fill-opacity:1.0000;  stroke:#FFFFFF; stroke-width:0.2000; stroke-opacity:1;  stroke-linecap:round; stroke-linejoin:round;fill-rule:evenodd;" d="M 223.0088,74.1646 228.8838,76.2896 228.9338,79.5896 222.7838,81.6646 208.5088,81.6646 214.8588,79.6896 218.5226,79.8396 218.5896,76.0675 215.0733,76.1761 208.8459,74.0809 Z" /> 
<path style="fill:#FFFFFF; fill-opacity:1.0000;  stroke:#FFFFFF; stroke-width:0.2000; stroke-opacity:1;  stroke-linecap:round; stroke-linejoin:round;fill-rule:evenodd;" d="M 204.5489,66.7109 204.5749,66.7759 204.7739,67.4319 203.9829,67.6849 203.1969,67.4309 203.4389,66.7049 203.1579,65.8659 203.5399,66.0189 204.0539,66.1999 204.3479,66.0799 204.5659,65.9899 204.8709,65.8589 Z" /> 
<path style="fill:#FFFFFF; fill-opacity:1.0000;  stroke:#FFFFFF; stroke-width:0.2000; stroke-opacity:1;  stroke-linecap:round; stroke-linejoin:round;fill-rule:evenodd;" d="M 212.0839,55.7429 212.0808,56.4500 211.4299,56.4409 210.6513,56.4507 210.4129,55.6809 210.6566,54.9580 212.0859,54.9419 Z" /> 
<path style="fill:#FFFFFF; fill-opacity:1.0000;  stroke:#FFFFFF; stroke-width:0.2000; stroke-opacity:1;  stroke-linecap:round; stroke-linejoin:round;fill-rule:evenodd;" d="M 206.4977,78.7316 206.4651,80.2662 205.7478,80.0246 204.9821,80.2662 204.9804,79.5378 204.9854,78.7528 205.7386,78.7253 Z" /> 
<path style="fill:#FFFFFF; fill-opacity:1.0000;  stroke:#FFFFFF; stroke-width:0.2000; stroke-opacity:1;  stroke-linecap:round; stroke-linejoin:round;fill-rule:evenodd;" d="M 208.4409,65.9785 208.2012,66.6900 208.4428,67.4557 207.7144,67.4575 206.9359,67.4673 206.6974,66.6975 206.9411,65.9745 Z" /> 
<path style="fill:#FFFFFF; fill-opacity:1.0000;  stroke:#FFFFFF; stroke-width:0.2000; stroke-opacity:1;  stroke-linecap:round; stroke-linejoin:round;fill-rule:evenodd;" d="M 204.7609,73.9719 204.7559,74.7569 204.0039,74.9939 203.2721,74.7432 203.2761,73.2435 203.9934,73.4851 204.7591,73.2435 Z" /> 
<path style="fill:#FFFFFF; fill-opacity:1.0000;  stroke:#FFFFFF; stroke-width:0.2000; stroke-opacity:1;  stroke-linecap:round; stroke-linejoin:round;fill-rule:evenodd;" d="M 202.8818,65.9640 203.1188,66.7160 202.8681,67.4478 201.3684,67.4438 201.6100,66.7264 201.3684,65.9608 202.0968,65.9590 Z" /> 
<path style="fill:#FFFFFF; fill-opacity:1.0000;  stroke:#FFFFFF; stroke-width:0.2000; stroke-opacity:1;  stroke-linecap:round; stroke-linejoin:round;fill-rule:evenodd;" d="M 199.4011,77.6660 199.1555,78.3948 197.6557,78.3908 197.8973,77.6735 197.6557,76.9078 198.3841,76.9060 199.1607,76.8927 Z" /> 
<path style="fill:#FFFFFF; fill-opacity:1.0000;  stroke:#FFFFFF; stroke-width:0.2000; stroke-opacity:1;  stroke-linecap:round; stroke-linejoin:round;fill-rule:evenodd;" d="M 212.0686,76.9618 212.0697,77.6828 212.0686,78.4448 211.3402,78.4466 210.5637,78.4598 210.3232,77.6866 210.5688,76.9578 Z" /> 
<path style="fill:#FFFFFF; fill-opacity:1.0000;  stroke:#FFFFFF; stroke-width:0.2000; stroke-opacity:1;  stroke-linecap:round; stroke-linejoin:round;fill-rule:evenodd;" d="M 199.3705,54.6443 195.7994,54.6494 195.7994,56.7491 199.5004,56.7423 199.4907,59.2423 193.0907,57.0923 193.0371,57.0703 189.7538,57.1890 189.8159,54.0199 193.2186,54.1444 199.4759,52.1860 Z" /> 
<path style="fill:#FFFFFF; fill-opacity:1.0000;  stroke:#FFFFFF; stroke-width:0.2000; stroke-opacity:1;  stroke-linecap:round; stroke-linejoin:round;fill-rule:evenodd;" d="M 204.6747,82.4276 204.6707,83.9274 203.9534,83.6858 203.1877,83.9274 203.1859,83.1989 203.1726,82.4224 203.9459,82.1819 Z" /> 
<path style="fill:#FFFFFF; fill-opacity:1.0000;  stroke:#FFFFFF; stroke-width:0.2000; stroke-opacity:1;  stroke-linecap:round; stroke-linejoin:round;fill-rule:evenodd;" d="M 199.0817,65.6470 195.6542,65.6528 195.6542,67.7560 198.9900,67.7560 198.9796,70.1353 192.4615,67.9860 192.4079,67.9641 189.1245,68.0827 189.1867,64.9137 192.5894,65.0381 199.0004,63.2672 Z" /> 
<path style="fill:#FFFFFF; fill-opacity:1.0000;  stroke:#FFFFFF; stroke-width:0.2000; stroke-opacity:1;  stroke-linecap:round; stroke-linejoin:round;fill-rule:evenodd;" d="M 202.9929,54.9274 203.2299,55.6794 202.9793,56.4112 201.4795,56.4072 201.7211,55.6899 201.4795,54.9242 202.2079,54.9224 Z" /> 
<path style="fill:#FFFFFF; fill-opacity:1.0000;  stroke:#FFFFFF; stroke-width:0.2000; stroke-opacity:1;  stroke-linecap:round; stroke-linejoin:round;fill-rule:evenodd;" d="M 229.4274,99.1833 229.4574,99.2437 223.8324,99.2187 223.7824,99.2187 178.8120,99.4688 178.8818,93.2048 203.8138,93.2048 229.4509,93.1149 Z" /> 
<path style="fill:#FFFFFF; fill-opacity:1.0000;  stroke:#FFFFFF; stroke-width:0.2000; stroke-opacity:1;  stroke-linecap:round; stroke-linejoin:round;fill-rule:evenodd;" d="M 214.9091,65.4848 215.0087,65.5255 218.2456,65.4086 218.1839,68.5571 214.8304,68.4345 208.4630,70.2229 208.4746,67.7598 212.3214,67.7598 212.3214,65.6578 208.3850,65.6578 208.5091,63.3348 Z" /> 
<path style="fill:#FFFFFF; fill-opacity:1.0000;  stroke:#FFFFFF; stroke-width:0.2000; stroke-opacity:1;  stroke-linecap:round; stroke-linejoin:round;fill-rule:evenodd;" d="M 204.6738,84.2441 204.6848,85.6824 203.8938,85.6614 203.1818,85.6684 203.1909,85.0174 203.1811,84.2389 203.9509,84.0004 Z" /> 
<path style="fill:#FFFFFF; fill-opacity:1.0000;  stroke:#FFFFFF; stroke-width:0.2000; stroke-opacity:1;  stroke-linecap:round; stroke-linejoin:round;fill-rule:evenodd;" d="M 230.8749,45.9919 230.9209,48.3589 230.8639,50.1599 226.6429,50.1859 225.1919,50.1599 225.2185,50.1708 179.3962,50.1754 179.4289,45.6776 Z" /> 
<path style="fill:#FFFFFF; fill-opacity:1.0000;  stroke:#FFFFFF; stroke-width:0.2000; stroke-opacity:1;  stroke-linecap:round; stroke-linejoin:round;fill-rule:evenodd;" d="M 204.6623,80.6001 204.6583,82.0999 203.9468,81.8603 203.1811,82.1019 203.1794,81.3735 203.1695,80.5949 203.9394,80.3565 Z" /> 
<path style="fill:#FFFFFF; fill-opacity:1.0000;  stroke:#FFFFFF; stroke-width:0.2000; stroke-opacity:1;  stroke-linecap:round; stroke-linejoin:round;fill-rule:evenodd;" d="M 210.3348,54.9619 210.0932,55.6793 210.3348,56.4449 209.6063,56.4467 208.8298,56.4600 208.5893,55.6867 208.8350,54.9579 Z" /> 
<path style="fill:#FFFFFF; fill-opacity:1.0000;  stroke:#FFFFFF; stroke-width:0.2000; stroke-opacity:1;  stroke-linecap:round; stroke-linejoin:round;fill-rule:evenodd;" d="M 212.0091,66.7364 212.0161,67.4484 211.3652,67.4393 210.5866,67.4491 210.3482,66.6793 210.5919,65.9564 212.0301,65.9454 Z" /> 
<path style="fill:#FFFFFF; fill-opacity:1.0000;  stroke:#FFFFFF; stroke-width:0.2000; stroke-opacity:1;  stroke-linecap:round; stroke-linejoin:round;fill-rule:evenodd;" d="M 204.8041,64.8500 204.7809,65.5799 204.0425,65.8808 203.3219,65.6139 203.3193,64.1215 204.0366,64.3631 204.8023,64.1215 Z" /> 
<path style="fill:#FFFFFF; fill-opacity:1.0000;  stroke:#FFFFFF; stroke-width:0.2000; stroke-opacity:1;  stroke-linecap:round; stroke-linejoin:round;fill-rule:evenodd;" d="M 210.2688,65.9683 210.0272,66.6856 210.2688,67.4513 209.5404,67.4530 208.7639,67.4663 208.5234,66.6930 208.7690,65.9642 Z" /> 
<path style="fill:#FFFFFF; fill-opacity:1.0000;  stroke:#FFFFFF; stroke-width:0.2000; stroke-opacity:1;  stroke-linecap:round; stroke-linejoin:round;fill-rule:evenodd;" d="M 199.3877,76.5641 195.5585,76.6071 195.5585,78.7039 199.3099,78.6859 199.3458,81.0599 192.9458,78.9099 192.7781,78.9256 189.6091,78.9961 189.6710,75.8375 193.0737,75.9620 199.3710,74.1092 Z" /> 
<path style="fill:#FFFFFF; fill-opacity:1.0000;  stroke:#FFFFFF; stroke-width:0.2000; stroke-opacity:1;  stroke-linecap:round; stroke-linejoin:round;fill-rule:evenodd;" d="M 204.6812,78.7683 204.6772,80.2681 203.9599,80.0265 203.1942,80.2681 203.1924,79.5397 203.1974,78.7547 203.9717,78.7382 Z" /> 
<path style="fill:#FFFFFF; fill-opacity:1.0000;  stroke:#FFFFFF; stroke-width:0.2000; stroke-opacity:1;  stroke-linecap:round; stroke-linejoin:round;fill-rule:evenodd;" d="M 201.4060,55.7085 201.1623,56.4314 199.6625,56.4274 199.9021,55.7159 199.6605,54.9503 200.3890,54.9485 201.1675,54.9386 Z" /> 
<path style="fill:#FFFFFF; fill-opacity:1.0000;  stroke:#FFFFFF; stroke-width:0.2000; stroke-opacity:1;  stroke-linecap:round; stroke-linejoin:round;fill-rule:evenodd;" d="M 204.8041,63.0216 204.7991,63.8066 204.0471,64.0436 203.3153,63.7929 203.3193,62.2931 204.0366,62.5348 204.8023,62.2931 Z" /> 
<path style="fill:#FFFFFF; fill-opacity:1.0000;  stroke:#FFFFFF; stroke-width:0.2000; stroke-opacity:1;  stroke-linecap:round; stroke-linejoin:round;fill-rule:evenodd;" d="M 202.8610,84.2572 202.8719,85.6954 202.0809,85.6744 201.3689,85.6814 201.3780,85.0305 201.3682,84.2519 202.1380,84.0135 Z" /> 
<path style="fill:#FFFFFF; fill-opacity:1.0000;  stroke:#FFFFFF; stroke-width:0.2000; stroke-opacity:1;  stroke-linecap:round; stroke-linejoin:round;fill-rule:evenodd;" d="M 204.7562,75.8020 204.7512,76.5870 203.9992,76.8240 203.2674,76.5733 203.2714,75.0736 203.9887,75.3152 204.7544,75.0736 Z" /> 
<path style="fill:#FFFFFF; fill-opacity:1.0000;  stroke:#FFFFFF; stroke-width:0.2000; stroke-opacity:1;  stroke-linecap:round; stroke-linejoin:round;fill-rule:evenodd;" d="M 206.4937,82.3966 206.4897,83.8964 205.7724,83.6548 205.0067,83.8964 205.0049,83.1679 204.9916,82.3914 205.7649,82.1509 Z" /> 
<path style="fill:#FFFFFF; fill-opacity:1.0000;  stroke:#FFFFFF; stroke-width:0.2000; stroke-opacity:1;  stroke-linecap:round; stroke-linejoin:round;fill-rule:evenodd;" d="M 223.1339,88.1889 223.1729,91.6529 185.2821,92.0970 185.2817,92.1109 185.1047,84.3351 201.0810,84.0964 201.0774,85.9944 206.8176,85.9913 206.8062,83.9665 223.0458,83.8544 Z" /> 
<path style="fill:#FFFFFF; fill-opacity:1.0000;  stroke:#FFFFFF; stroke-width:0.2000; stroke-opacity:1;  stroke-linecap:round; stroke-linejoin:round;fill-rule:evenodd;" d="M 206.5815,76.9380 206.3399,77.6553 206.5815,78.4210 205.8530,78.4228 205.0680,78.4178 204.8310,77.6658 205.0817,76.9340 Z" /> 
<path style="fill:#FFFFFF; fill-opacity:1.0000;  stroke:#FFFFFF; stroke-width:0.2000; stroke-opacity:1;  stroke-linecap:round; stroke-linejoin:round;fill-rule:evenodd;" d="M 199.0669,62.9509 192.5366,64.7154 188.8727,64.5654 188.8051,68.3720 192.3944,68.2776 198.8366,70.4154 184.3866,70.2404 178.5116,68.1154 178.4616,64.8154 184.6116,62.7404 Z" /> 
<path style="fill:#FFFFFF; fill-opacity:1.0000;  stroke:#FFFFFF; stroke-width:0.2000; stroke-opacity:1;  stroke-linecap:round; stroke-linejoin:round;fill-rule:evenodd;" d="M 210.2383,76.9787 209.9987,77.6902 210.2403,78.4559 209.5119,78.4576 208.7333,78.4675 208.4949,77.6976 208.7385,76.9747 Z" /> 
<path style="fill:#FFFFFF; fill-opacity:1.0000;  stroke:#FFFFFF; stroke-width:0.2000; stroke-opacity:1;  stroke-linecap:round; stroke-linejoin:round;fill-rule:evenodd;" d="M 202.8715,78.7316 202.8390,80.2662 202.1217,80.0246 201.3560,80.2662 201.3542,79.5378 201.3592,78.7528 202.1125,78.7253 Z" /> 
<path style="fill:#FFFFFF; fill-opacity:1.0000;  stroke:#FFFFFF; stroke-width:0.2000; stroke-opacity:1;  stroke-linecap:round; stroke-linejoin:round;fill-rule:evenodd;" d="M 215.0013,54.4965 215.0584,54.5199 218.3581,54.4180 218.2761,57.5689 214.8734,57.4444 208.6213,59.1840 208.6026,56.7645 212.3836,56.7645 212.3836,54.6555 208.5728,54.6555 208.7179,52.3359 Z" /> 
<path style="fill:#FFFFFF; fill-opacity:1.0000;  stroke:#FFFFFF; stroke-width:0.2000; stroke-opacity:1;  stroke-linecap:round; stroke-linejoin:round;fill-rule:evenodd;" d="M 202.8544,80.5808 202.8504,82.0805 202.1389,81.8409 201.3732,82.0825 201.3714,81.3541 201.3616,80.5755 202.1314,80.3371 Z" /> 
<path style="fill:#FFFFFF; fill-opacity:1.0000;  stroke:#FFFFFF; stroke-width:0.2000; stroke-opacity:1;  stroke-linecap:round; stroke-linejoin:round;fill-rule:evenodd;" d="M 197.6407,66.7351 197.3970,67.4580 195.9588,67.4690 195.9798,66.6780 195.9728,65.9660 196.6237,65.9751 197.4023,65.9653 Z" /> 
<path style="fill:#FFFFFF; fill-opacity:1.0000;  stroke:#FFFFFF; stroke-width:0.2000; stroke-opacity:1;  stroke-linecap:round; stroke-linejoin:round;fill-rule:evenodd;" d="M 202.8779,82.4011 202.8739,83.9009 202.1566,83.6593 201.3909,83.9009 201.3891,83.1725 201.3758,82.3959 202.1491,82.1555 Z" /> 
<path style="fill:#FFFFFF; fill-opacity:1.0000;  stroke:#FFFFFF; stroke-width:0.2000; stroke-opacity:1;  stroke-linecap:round; stroke-linejoin:round;fill-rule:evenodd;" d="M 222.9683,63.2247 228.8433,65.3497 228.8933,68.6497 222.7433,70.7247 208.4589,70.5329 214.8672,68.7328 218.4825,68.8808 218.5492,65.1067 214.9933,65.1997 208.5183,63.0497 Z" /> 
<path style="fill:#FFFFFF; fill-opacity:1.0000;  stroke:#FFFFFF; stroke-width:0.2000; stroke-opacity:1;  stroke-linecap:round; stroke-linejoin:round;fill-rule:evenodd;" d="M 197.7599,55.7249 197.5162,56.4478 196.0780,56.4588 196.0990,55.6678 196.0920,54.9558 196.7429,54.9649 197.5215,54.9551 Z" /> 
<path style="fill:#FFFFFF; fill-opacity:1.0000;  stroke:#FFFFFF; stroke-width:0.2000; stroke-opacity:1;  stroke-linecap:round; stroke-linejoin:round;fill-rule:evenodd;" d="M 223.1334,52.2293 229.0084,54.3543 229.0584,57.6543 222.9084,59.7293 208.6617,59.5176 214.9834,57.7543 218.5973,57.9023 218.6744,54.1441 215.1407,54.2155 208.7849,52.0439 Z" /> 
<path style="fill:#FFFFFF; fill-opacity:1.0000;  stroke:#FFFFFF; stroke-width:0.2000; stroke-opacity:1;  stroke-linecap:round; stroke-linejoin:round;fill-rule:evenodd;" d="M 199.3502,51.9160 193.1488,53.8461 189.5201,53.6975 189.4529,57.4819 192.9952,57.3920 199.4092,59.5490 185.0342,59.3601 179.1592,57.2351 179.1092,53.9351 185.2592,51.8601 Z" /> 
<path style="fill:#FFFFFF; fill-opacity:1.0000;  stroke:#FFFFFF; stroke-width:0.2000; stroke-opacity:1;  stroke-linecap:round; stroke-linejoin:round;fill-rule:evenodd;" d="M 206.6853,54.9722 206.4436,55.6895 206.6853,56.4552 205.9568,56.4570 205.1718,56.4520 204.9348,55.7000 205.1855,54.9682 Z" /> 
<path style="fill:#FFFFFF; fill-opacity:1.0000;  stroke:#FFFFFF; stroke-width:0.2000; stroke-opacity:1;  stroke-linecap:round; stroke-linejoin:round;fill-rule:evenodd;" d="M 202.8256,76.9204 203.0626,77.6724 202.8120,78.4042 201.3122,78.4002 201.5538,77.6829 201.3122,76.9172 202.0406,76.9154 Z" /> 
<path style="fill:#FFFFFF; fill-opacity:1.0000;  stroke:#FFFFFF; stroke-width:0.2000; stroke-opacity:1;  stroke-linecap:round; stroke-linejoin:round;fill-rule:evenodd;" d="M 199.2629,73.8209 193.0264,75.6215 189.3739,75.4981 189.2952,79.2646 192.9109,79.1913 199.2819,81.3639 184.8764,81.1465 179.0014,79.0215 178.9514,75.7215 185.1014,73.6465 Z" /> 
<path style="fill:#FFFFFF; fill-opacity:1.0000;  stroke:#FFFFFF; stroke-width:0.2000; stroke-opacity:1;  stroke-linecap:round; stroke-linejoin:round;fill-rule:evenodd;" d="M 204.7464,68.4858 204.7562,69.2643 203.9864,69.5028 203.2634,69.2591 203.2321,67.7684 203.9789,67.9989 204.7446,67.7573 Z" /> 
<path style="fill:#FFFFFF; fill-opacity:1.0000;  stroke:#FFFFFF; stroke-width:0.2000; stroke-opacity:1;  stroke-linecap:round; stroke-linejoin:round;fill-rule:evenodd;" d="M 197.5691,77.6822 197.3255,78.4052 195.8872,78.4161 195.9082,77.6251 195.9012,76.9131 196.5521,76.9222 197.3307,76.9124 Z" /> 
<path style="fill:#FFFFFF; fill-opacity:1.0000;  stroke:#FFFFFF; stroke-width:0.2000; stroke-opacity:1;  stroke-linecap:round; stroke-linejoin:round;fill-rule:evenodd;" d="M 206.6193,65.9785 206.3777,66.6958 206.6193,67.4615 205.8909,67.4633 205.1059,67.4583 204.8689,66.7063 205.1429,65.9729 Z" /> 
<path style="fill:#FFFFFF; fill-opacity:1.0000;  stroke:#FFFFFF; stroke-width:0.2000; stroke-opacity:1;  stroke-linecap:round; stroke-linejoin:round;fill-rule:evenodd;" d="M 204.7609,59.3973 204.7742,60.1738 204.0009,60.4143 203.3069,60.1803 203.3109,58.6806 203.9934,58.9105 204.7591,58.6688 Z" /> 
<path style="fill:#FFFFFF; fill-opacity:1.0000;  stroke:#FFFFFF; stroke-width:0.2000; stroke-opacity:1;  stroke-linecap:round; stroke-linejoin:round;fill-rule:evenodd;" d="M 208.3991,76.9543 208.1575,77.6716 208.3991,78.4373 207.6707,78.4390 206.8857,78.4340 206.6487,77.6820 206.8993,76.9503 Z" /> 
<path style="fill:#FFFFFF; fill-opacity:1.0000;  stroke:#FFFFFF; stroke-width:0.2000; stroke-opacity:1;  stroke-linecap:round; stroke-linejoin:round;fill-rule:evenodd;" d="M 204.7943,61.2026 204.8041,61.9811 204.0343,62.2196 203.3113,61.9759 203.3153,60.4761 204.0268,60.7158 204.7925,60.4741 Z" /> 
<path style="fill:#FFFFFF; fill-opacity:1.0000;  stroke:#FFFFFF; stroke-width:0.2000; stroke-opacity:1;  stroke-linecap:round; stroke-linejoin:round;fill-rule:evenodd;" d="M 199.4643,66.7293 199.2186,67.4580 197.7188,67.4540 197.9605,66.7367 197.7188,65.9710 198.4473,65.9693 199.2238,65.9560 Z" /> 
<path style="fill:#FFFFFF; fill-opacity:1.0000; stroke:none;fill-rule:evenodd;" d="M 155.2663,86.4420 152.3463,86.4420 152.3463,85.7020 155.2663,85.7020 Z" /> 
<path style="fill:#FFFFFF; fill-opacity:1.0000; stroke:none;fill-rule:evenodd;" d="M 151.8363,86.4420 148.9163,86.4420 148.9163,85.7020 151.8363,85.7020 Z" /> 
<path style="fill:#FFFFFF; fill-opacity:1.0000; stroke:none;fill-rule:evenodd;" d="M 155.2663,85.1720 152.3463,85.1720 152.3463,84.4320 155.2663,84.4320 Z" /> 
<path style="fill:#FFFFFF; fill-opacity:1.0000; stroke:none;fill-rule:evenodd;" d="M 151.8363,85.1720 148.9163,85.1720 148.9163,84.4320 151.8363,84.4320 Z" /> 
<path style="fill:#FFFFFF; fill-opacity:1.0000; stroke:none;fill-rule:evenodd;" d="M 155.2663,83.9020 152.3463,83.9020 152.3463,83.1620 155.2663,83.1620 Z" /> 
<path style="fill:#FFFFFF; fill-opacity:1.0000; stroke:none;fill-rule:evenodd;" d="M 151.8363,83.9020 148.9163,83.9020 148.9163,83.1620 151.8363,83.1620 Z" /> 
<path style="fill:#FFFFFF; fill-opacity:1.0000; stroke:none;fill-rule:evenodd;" d="M 155.2663,82.6320 152.3463,82.6320 152.3463,81.8920 155.2663,81.8920 Z" /> 
<path style="fill:#FFFFFF; fill-opacity:1.0000; stroke:none;fill-rule:evenodd;" d="M 151.8363,82.6320 148.9163,82.6320 148.9163,81.8920 151.8363,81.8920 Z" /> 
<path style="fill:#FFFFFF; fill-opacity:1.0000; stroke:none;fill-rule:evenodd;" d="M 155.2663,81.3620 152.3463,81.3620 152.3463,80.6220 155.2663,80.6220 Z" /> 
<path style="fill:#FFFFFF; fill-opacity:1.0000; stroke:none;fill-rule:evenodd;" d="M 151.8363,81.3620 148.9163,81.3620 148.9163,80.6220 151.8363,80.6220 Z" /> 
<path style="fill:#FFFFFF; fill-opacity:1.0000; stroke:none;fill-rule:evenodd;" d="M 155.2663,80.0920 152.3463,80.0920 152.3463,79.3520 155.2663,79.3520 Z" /> 
<path style="fill:#FFFFFF; fill-opacity:1.0000; stroke:none;fill-rule:evenodd;" d="M 151.8363,80.0920 148.9163,80.0920 148.9163,79.3520 151.8363,79.3520 Z" /> 
<path style="fill:#FFFFFF; fill-opacity:1.0000; stroke:none;fill-rule:evenodd;" d="M 155.2663,78.8220 152.3463,78.8220 152.3463,78.0820 155.2663,78.0820 Z" /> 
<path style="fill:#FFFFFF; fill-opacity:1.0000; stroke:none;fill-rule:evenodd;" d="M 151.8363,78.8220 148.9163,78.8220 148.9163,78.0820 151.8363,78.0820 Z" /> 
<path style="fill:#FFFFFF; fill-opacity:1.0000; stroke:none;fill-rule:evenodd;" d="M 155.2663,77.5520 152.3463,77.5520 152.3463,76.8120 155.2663,76.8120 Z" /> 
<path style="fill:#FFFFFF; fill-opacity:1.0000; stroke:none;fill-rule:evenodd;" d="M 151.8363,77.5520 148.9163,77.5520 148.9163,76.8120 151.8363,76.8120 Z" /> 
<path style="fill:#FFFFFF; fill-opacity:1.0000; stroke:none;fill-rule:evenodd;" d="M 155.2663,76.2820 152.3463,76.2820 152.3463,75.5420 155.2663,75.5420 Z" /> 
<path style="fill:#FFFFFF; fill-opacity:1.0000; stroke:none;fill-rule:evenodd;" d="M 151.8363,76.2820 148.9163,76.2820 148.9163,75.5420 151.8363,75.5420 Z" /> 
<path style="fill:#FFFFFF; fill-opacity:1.0000; stroke:none;fill-rule:evenodd;" d="M 155.2663,75.0120 152.3463,75.0120 152.3463,74.2720 155.2663,74.2720 Z" /> 
<path style="fill:#FFFFFF; fill-opacity:1.0000; stroke:none;fill-rule:evenodd;" d="M 151.8363,75.0120 148.9163,75.0120 148.9163,74.2720 151.8363,74.2720 Z" /> 
<path style="fill:#FFFFFF; fill-opacity:1.0000; stroke:none;fill-rule:evenodd;" d="M 155.2663,73.7420 152.3463,73.7420 152.3463,73.0020 155.2663,73.0020 Z" /> 
<path style="fill:#FFFFFF; fill-opacity:1.0000; stroke:none;fill-rule:evenodd;" d="M 151.8363,73.7420 148.9163,73.7420 148.9163,73.0020 151.8363,73.0020 Z" /> 
<path style="fill:#FFFFFF; fill-opacity:1.0000; stroke:none;fill-rule:evenodd;" d="M 155.2663,72.4720 152.3463,72.4720 152.3463,71.7320 155.2663,71.7320 Z" /> 
<path style="fill:#FFFFFF; fill-opacity:1.0000; stroke:none;fill-rule:evenodd;" d="M 151.8363,72.4720 148.9163,72.4720 148.9163,71.7320 151.8363,71.7320 Z" /> 
<path style="fill:#FFFFFF; fill-opacity:1.0000; stroke:none;fill-rule:evenodd;" d="M 155.2663,71.2020 152.3463,71.2020 152.3463,70.4620 155.2663,70.4620 Z" /> 
<path style="fill:#FFFFFF; fill-opacity:1.0000; stroke:none;fill-rule:evenodd;" d="M 151.8363,71.2020 148.9163,71.2020 148.9163,70.4620 151.8363,70.4620 Z" /> 
<path style="fill:#FFFFFF; fill-opacity:1.0000; stroke:none;fill-rule:evenodd;" d="M 155.2663,69.9320 152.3463,69.9320 152.3463,69.1920 155.2663,69.1920 Z" /> 
<path style="fill:#FFFFFF; fill-opacity:1.0000; stroke:none;fill-rule:evenodd;" d="M 151.8363,69.9320 148.9163,69.9320 148.9163,69.1920 151.8363,69.1920 Z" /> 
<path style="fill:#FFFFFF; fill-opacity:1.0000; stroke:none;fill-rule:evenodd;" d="M 155.2663,68.6620 152.3463,68.6620 152.3463,67.9220 155.2663,67.9220 Z" /> 
<path style="fill:#FFFFFF; fill-opacity:1.0000; stroke:none;fill-rule:evenodd;" d="M 151.8363,68.6620 148.9163,68.6620 148.9163,67.9220 151.8363,67.9220 Z" /> 
<path style="fill:#FFFFFF; fill-opacity:1.0000; stroke:none;fill-rule:evenodd;" d="M 155.2663,67.3920 152.3463,67.3920 152.3463,66.6520 155.2663,66.6520 Z" /> 
<path style="fill:#FFFFFF; fill-opacity:1.0000; stroke:none;fill-rule:evenodd;" d="M 151.8363,67.3920 148.9163,67.3920 148.9163,66.6520 151.8363,66.6520 Z" /> 
<path style="fill:#FFFFFF; fill-opacity:1.0000; stroke:none;fill-rule:evenodd;" d="M 155.2663,66.1220 152.3463,66.1220 152.3463,65.3820 155.2663,65.3820 Z" /> 
<path style="fill:#FFFFFF; fill-opacity:1.0000; stroke:none;fill-rule:evenodd;" d="M 151.8363,66.1220 148.9163,66.1220 148.9163,65.3820 151.8363,65.3820 Z" /> 
<path style="fill:#FFFFFF; fill-opacity:1.0000; stroke:none;fill-rule:evenodd;" d="M 155.2663,64.8520 152.3463,64.8520 152.3463,64.1120 155.2663,64.1120 Z" /> 
<path style="fill:#FFFFFF; fill-opacity:1.0000; stroke:none;fill-rule:evenodd;" d="M 151.8363,64.8520 148.9163,64.8520 148.9163,64.1120 151.8363,64.1120 Z" /> 
<path style="fill:#FFFFFF; fill-opacity:1.0000; stroke:none;fill-rule:evenodd;" d="M 155.2663,63.5820 152.3463,63.5820 152.3463,62.8420 155.2663,62.8420 Z" /> 
<path style="fill:#FFFFFF; fill-opacity:1.0000; stroke:none;fill-rule:evenodd;" d="M 151.8363,63.5820 148.9163,63.5820 148.9163,62.8420 151.8363,62.8420 Z" /> 
<path style="fill:#FFFFFF; fill-opacity:1.0000; stroke:none;fill-rule:evenodd;" d="M 155.2663,62.3120 152.3463,62.3120 152.3463,61.5720 155.2663,61.5720 Z" /> 
<path style="fill:#FFFFFF; fill-opacity:1.0000; stroke:none;fill-rule:evenodd;" d="M 151.8363,62.3120 148.9163,62.3120 148.9163,61.5720 151.8363,61.5720 Z" /> 
<path style="fill:#FFFFFF; fill-opacity:1.0000; stroke:none;fill-rule:evenodd;" d="M 155.2663,61.0420 152.3463,61.0420 152.3463,60.3020 155.2663,60.3020 Z" /> 
<path style="fill:#FFFFFF; fill-opacity:1.0000; stroke:none;fill-rule:evenodd;" d="M 151.8363,61.0420 148.9163,61.0420 148.9163,60.3020 151.8363,60.3020 Z" /> 
<path style="fill:#FFFFFF; fill-opacity:1.0000; stroke:none;fill-rule:evenodd;" d="M 155.2663,59.7720 152.3463,59.7720 152.3463,59.0320 155.2663,59.0320 Z" /> 
<path style="fill:#FFFFFF; fill-opacity:1.0000; stroke:none;fill-rule:evenodd;" d="M 151.8363,59.7720 148.9163,59.7720 148.9163,59.0320 151.8363,59.0320 Z" /> 
<path style="fill:#FFFFFF; fill-opacity:1.0000; stroke:none;fill-rule:evenodd;" d="M 155.2663,58.5020 152.3463,58.5020 152.3463,57.7620 155.2663,57.7620 Z" /> 
<path style="fill:#FFFFFF; fill-opacity:1.0000; stroke:none;fill-rule:evenodd;" d="M 151.8363,58.5020 148.9163,58.5020 148.9163,57.7620 151.8363,57.7620 Z" /> 
<path style="fill:#FFFFFF; fill-opacity:1.0000; stroke:none;fill-rule:evenodd;" d="M 155.2663,57.2320 152.3463,57.2320 152.3463,56.4920 155.2663,56.4920 Z" /> 
<path style="fill:#FFFFFF; fill-opacity:1.0000; stroke:none;fill-rule:evenodd;" d="M 151.8363,57.2320 148.9163,57.2320 148.9163,56.4920 151.8363,56.4920 Z" /> 
<path style="fill:#FFFFFF; fill-opacity:1.0000; stroke:none;fill-rule:evenodd;" d="M 155.2663,55.9620 152.3463,55.9620 152.3463,55.2220 155.2663,55.2220 Z" /> 
<path style="fill:#FFFFFF; fill-opacity:1.0000; stroke:none;fill-rule:evenodd;" d="M 151.8363,55.9620 148.9163,55.9620 148.9163,55.2220 151.8363,55.2220 Z" /> 
<path style="fill:#FFFFFF; fill-opacity:1.0000; stroke:none;fill-rule:evenodd;" d="M 257.9283,55.4245 260.8483,55.4245 260.8483,56.1645 257.9283,56.1645 Z" /> 
<path style="fill:#FFFFFF; fill-opacity:1.0000; stroke:none;fill-rule:evenodd;" d="M 261.3583,55.4245 264.2783,55.4245 264.2783,56.1645 261.3583,56.1645 Z" /> 
<path style="fill:#FFFFFF; fill-opacity:1.0000; stroke:none;fill-rule:evenodd;" d="M 257.9283,56.6945 260.8483,56.6945 260.8483,57.4345 257.9283,57.4345 Z" /> 
<path style="fill:#FFFFFF; fill-opacity:1.0000; stroke:none;fill-rule:evenodd;" d="M 261.3583,56.6945 264.2783,56.6945 264.2783,57.4345 261.3583,57.4345 Z" /> 
<path style="fill:#FFFFFF; fill-opacity:1.0000; stroke:none;fill-rule:evenodd;" d="M 257.9283,57.9645 260.8483,57.9645 260.8483,58.7045 257.9283,58.7045 Z" /> 
<path style="fill:#FFFFFF; fill-opacity:1.0000; stroke:none;fill-rule:evenodd;" d="M 261.3583,57.9645 264.2783,57.9645 264.2783,58.7045 261.3583,58.7045 Z" /> 
<path style="fill:#FFFFFF; fill-opacity:1.0000; stroke:none;fill-rule:evenodd;" d="M 257.9283,59.2345 260.8483,59.2345 260.8483,59.9745 257.9283,59.9745 Z" /> 
<path style="fill:#FFFFFF; fill-opacity:1.0000; stroke:none;fill-rule:evenodd;" d="M 261.3583,59.2345 264.2783,59.2345 264.2783,59.9745 261.3583,59.9745 Z" /> 
<path style="fill:#FFFFFF; fill-opacity:1.0000; stroke:none;fill-rule:evenodd;" d="M 257.9283,60.5045 260.8483,60.5045 260.8483,61.2445 257.9283,61.2445 Z" /> 
<path style="fill:#FFFFFF; fill-opacity:1.0000; stroke:none;fill-rule:evenodd;" d="M 261.3583,60.5045 264.2783,60.5045 264.2783,61.2445 261.3583,61.2445 Z" /> 
<path style="fill:#FFFFFF; fill-opacity:1.0000; stroke:none;fill-rule:evenodd;" d="M 257.9283,61.7745 260.8483,61.7745 260.8483,62.5145 257.9283,62.5145 Z" /> 
<path style="fill:#FFFFFF; fill-opacity:1.0000; stroke:none;fill-rule:evenodd;" d="M 261.3583,61.7745 264.2783,61.7745 264.2783,62.5145 261.3583,62.5145 Z" /> 
<path style="fill:#FFFFFF; fill-opacity:1.0000; stroke:none;fill-rule:evenodd;" d="M 257.9283,63.0445 260.8483,63.0445 260.8483,63.7845 257.9283,63.7845 Z" /> 
<path style="fill:#FFFFFF; fill-opacity:1.0000; stroke:none;fill-rule:evenodd;" d="M 261.3583,63.0445 264.2783,63.0445 264.2783,63.7845 261.3583,63.7845 Z" /> 
<path style="fill:#FFFFFF; fill-opacity:1.0000; stroke:none;fill-rule:evenodd;" d="M 257.9283,64.3145 260.8483,64.3145 260.8483,65.0545 257.9283,65.0545 Z" /> 
<path style="fill:#FFFFFF; fill-opacity:1.0000; stroke:none;fill-rule:evenodd;" d="M 261.3583,64.3145 264.2783,64.3145 264.2783,65.0545 261.3583,65.0545 Z" /> 
<path style="fill:#FFFFFF; fill-opacity:1.0000; stroke:none;fill-rule:evenodd;" d="M 257.9283,65.5845 260.8483,65.5845 260.8483,66.3245 257.9283,66.3245 Z" /> 
<path style="fill:#FFFFFF; fill-opacity:1.0000; stroke:none;fill-rule:evenodd;" d="M 261.3583,65.5845 264.2783,65.5845 264.2783,66.3245 261.3583,66.3245 Z" /> 
<path style="fill:#FFFFFF; fill-opacity:1.0000; stroke:none;fill-rule:evenodd;" d="M 257.9283,66.8545 260.8483,66.8545 260.8483,67.5945 257.9283,67.5945 Z" /> 
<path style="fill:#FFFFFF; fill-opacity:1.0000; stroke:none;fill-rule:evenodd;" d="M 261.3583,66.8545 264.2783,66.8545 264.2783,67.5945 261.3583,67.5945 Z" /> 
<path style="fill:#FFFFFF; fill-opacity:1.0000; stroke:none;fill-rule:evenodd;" d="M 257.9283,68.1245 260.8483,68.1245 260.8483,68.8645 257.9283,68.8645 Z" /> 
<path style="fill:#FFFFFF; fill-opacity:1.0000; stroke:none;fill-rule:evenodd;" d="M 261.3583,68.1245 264.2783,68.1245 264.2783,68.8645 261.3583,68.8645 Z" /> 
<path style="fill:#FFFFFF; fill-opacity:1.0000; stroke:none;fill-rule:evenodd;" d="M 257.9283,69.3945 260.8483,69.3945 260.8483,70.1345 257.9283,70.1345 Z" /> 
<path style="fill:#FFFFFF; fill-opacity:1.0000; stroke:none;fill-rule:evenodd;" d="M 261.3583,69.3945 264.2783,69.3945 264.2783,70.1345 261.3583,70.1345 Z" /> 
<path style="fill:#FFFFFF; fill-opacity:1.0000; stroke:none;fill-rule:evenodd;" d="M 257.9283,70.6645 260.8483,70.6645 260.8483,71.4045 257.9283,71.4045 Z" /> 
<path style="fill:#FFFFFF; fill-opacity:1.0000; stroke:none;fill-rule:evenodd;" d="M 261.3583,70.6645 264.2783,70.6645 264.2783,71.4045 261.3583,71.4045 Z" /> 
<path style="fill:#FFFFFF; fill-opacity:1.0000; stroke:none;fill-rule:evenodd;" d="M 257.9283,71.9345 260.8483,71.9345 260.8483,72.6745 257.9283,72.6745 Z" /> 
<path style="fill:#FFFFFF; fill-opacity:1.0000; stroke:none;fill-rule:evenodd;" d="M 261.3583,71.9345 264.2783,71.9345 264.2783,72.6745 261.3583,72.6745 Z" /> 
<path style="fill:#FFFFFF; fill-opacity:1.0000; stroke:none;fill-rule:evenodd;" d="M 257.9283,73.2045 260.8483,73.2045 260.8483,73.9445 257.9283,73.9445 Z" /> 
<path style="fill:#FFFFFF; fill-opacity:1.0000; stroke:none;fill-rule:evenodd;" d="M 261.3583,73.2045 264.2783,73.2045 264.2783,73.9445 261.3583,73.9445 Z" /> 
<path style="fill:#FFFFFF; fill-opacity:1.0000; stroke:none;fill-rule:evenodd;" d="M 257.9283,74.4745 260.8483,74.4745 260.8483,75.2145 257.9283,75.2145 Z" /> 
<path style="fill:#FFFFFF; fill-opacity:1.0000; stroke:none;fill-rule:evenodd;" d="M 261.3583,74.4745 264.2783,74.4745 264.2783,75.2145 261.3583,75.2145 Z" /> 
<path style="fill:#FFFFFF; fill-opacity:1.0000; stroke:none;fill-rule:evenodd;" d="M 257.9283,75.7445 260.8483,75.7445 260.8483,76.4845 257.9283,76.4845 Z" /> 
<path style="fill:#FFFFFF; fill-opacity:1.0000; stroke:none;fill-rule:evenodd;" d="M 261.3583,75.7445 264.2783,75.7445 264.2783,76.4845 261.3583,76.4845 Z" /> 
<path style="fill:#FFFFFF; fill-opacity:1.0000; stroke:none;fill-rule:evenodd;" d="M 257.9283,77.0145 260.8483,77.0145 260.8483,77.7545 257.9283,77.7545 Z" /> 
<path style="fill:#FFFFFF; fill-opacity:1.0000; stroke:none;fill-rule:evenodd;" d="M 261.3583,77.0145 264.2783,77.0145 264.2783,77.7545 261.3583,77.7545 Z" /> 
<path style="fill:#FFFFFF; fill-opacity:1.0000; stroke:none;fill-rule:evenodd;" d="M 257.9283,78.2845 260.8483,78.2845 260.8483,79.0245 257.9283,79.0245 Z" /> 
<path style="fill:#FFFFFF; fill-opacity:1.0000; stroke:none;fill-rule:evenodd;" d="M 261.3583,78.2845 264.2783,78.2845 264.2783,79.0245 261.3583,79.0245 Z" /> 
<path style="fill:#FFFFFF; fill-opacity:1.0000; stroke:none;fill-rule:evenodd;" d="M 257.9283,79.5545 260.8483,79.5545 260.8483,80.2945 257.9283,80.2945 Z" /> 
<path style="fill:#FFFFFF; fill-opacity:1.0000; stroke:none;fill-rule:evenodd;" d="M 261.3583,79.5545 264.2783,79.5545 264.2783,80.2945 261.3583,80.2945 Z" /> 
<path style="fill:#FFFFFF; fill-opacity:1.0000; stroke:none;fill-rule:evenodd;" d="M 257.9283,80.8245 260.8483,80.8245 260.8483,81.5645 257.9283,81.5645 Z" /> 
<path style="fill:#FFFFFF; fill-opacity:1.0000; stroke:none;fill-rule:evenodd;" d="M 261.3583,80.8245 264.2783,80.8245 264.2783,81.5645 261.3583,81.5645 Z" /> 
<path style="fill:#FFFFFF; fill-opacity:1.0000; stroke:none;fill-rule:evenodd;" d="M 257.9283,82.0945 260.8483,82.0945 260.8483,82.8345 257.9283,82.8345 Z" /> 
<path style="fill:#FFFFFF; fill-opacity:1.0000; stroke:none;fill-rule:evenodd;" d="M 261.3583,82.0945 264.2783,82.0945 264.2783,82.8345 261.3583,82.8345 Z" /> 
<path style="fill:#FFFFFF; fill-opacity:1.0000; stroke:none;fill-rule:evenodd;" d="M 257.9283,83.3645 260.8483,83.3645 260.8483,84.1045 257.9283,84.1045 Z" /> 
<path style="fill:#FFFFFF; fill-opacity:1.0000; stroke:none;fill-rule:evenodd;" d="M 261.3583,83.3645 264.2783,83.3645 264.2783,84.1045 261.3583,84.1045 Z" /> 
<path style="fill:#FFFFFF; fill-opacity:1.0000; stroke:none;fill-rule:evenodd;" d="M 257.9283,84.6345 260.8483,84.6345 260.8483,85.3745 257.9283,85.3745 Z" /> 
<path style="fill:#FFFFFF; fill-opacity:1.0000; stroke:none;fill-rule:evenodd;" d="M 261.3583,84.6345 264.2783,84.6345 264.2783,85.3745 261.3583,85.3745 Z" /> 
<path style="fill:#FFFFFF; fill-opacity:1.0000; stroke:none;fill-rule:evenodd;" d="M 257.9283,85.9045 260.8483,85.9045 260.8483,86.6445 257.9283,86.6445 Z" /> 
<path style="fill:#FFFFFF; fill-opacity:1.0000; stroke:none;fill-rule:evenodd;" d="M 261.3583,85.9045 264.2783,85.9045 264.2783,86.6445 261.3583,86.6445 Z" /> 
</g>
<g style="fill:#FFFFFF; fill-opacity:1.0000; stroke:none;">
<circle cx="262.7899" cy="79.8879" r="0.3000" /> 
</g>
<g style="fill:#FFFFFF; fill-opacity:1.0000; stroke:none;">
<circle cx="217.6634" cy="77.3769" r="0.2500" /> 
</g>
<g style="fill:#FFFFFF; fill-opacity:1.0000; stroke:none;">
<circle cx="209.3676" cy="77.7211" r="0.2500" /> 
</g>
<g style="fill:#FFFFFF; fill-opacity:1.0000; stroke:none;">
<circle cx="259.3172" cy="78.3109" r="0.3000" /> 
</g>
<g style="fill:#FFFFFF; fill-opacity:1.0000; stroke:none;">
<circle cx="259.4604" cy="79.6109" r="0.3000" /> 
</g>
<g style="fill:#FFFFFF; fill-opacity:1.0000; stroke:none;">
<circle cx="227.0899" cy="77.9809" r="0.2500" /> 
</g>
<g style="fill:#FFFFFF; fill-opacity:1.0000; stroke:none;">
<circle cx="262.7564" cy="72.2789" r="0.3000" /> 
</g>
<g style="fill:#FFFFFF; fill-opacity:1.0000; stroke:none;">
<circle cx="227.3054" cy="67.5779" r="0.2500" /> 
</g>
<g style="fill:#FFFFFF; fill-opacity:1.0000; stroke:none;">
<circle cx="211.1979" cy="77.6969" r="0.2500" /> 
</g>
<g style="fill:#FFFFFF; fill-opacity:1.0000; stroke:none;">
<circle cx="262.8269" cy="70.9539" r="0.3000" /> 
</g>
<g style="fill:#FFFFFF; fill-opacity:1.0000; stroke:none;">
<circle cx="205.9867" cy="55.7126" r="0.2500" /> 
</g>
<g style="fill:#FFFFFF; fill-opacity:1.0000; stroke:none;">
<circle cx="259.3883" cy="55.7945" r="0.3000" /> 
</g>
<g style="fill:#FFFFFF; fill-opacity:1.0000; stroke:none;">
<circle cx="262.7564" cy="82.4789" r="0.3000" /> 
</g>
<g style="fill:#FFFFFF; fill-opacity:1.0000; stroke:none;">
<circle cx="205.7234" cy="83.0538" r="0.2500" /> 
</g>
<g style="fill:#FFFFFF; fill-opacity:1.0000; stroke:none;">
<circle cx="211.2539" cy="55.6989" r="0.2500" /> 
</g>
<g style="fill:#FFFFFF; fill-opacity:1.0000; stroke:none;">
<circle cx="259.3763" cy="59.5471" r="0.3000" /> 
</g>
<g style="fill:#FFFFFF; fill-opacity:1.0000; stroke:none;">
<circle cx="203.9329" cy="84.8414" r="0.2500" /> 
</g>
<g style="fill:#FFFFFF; fill-opacity:1.0000; stroke:none;">
<circle cx="259.3499" cy="83.7598" r="0.3000" /> 
</g>
<g style="fill:#FFFFFF; fill-opacity:1.0000; stroke:none;">
<circle cx="205.7289" cy="81.2969" r="0.2500" /> 
</g>
<g style="fill:#FFFFFF; fill-opacity:1.0000; stroke:none;">
<circle cx="259.5650" cy="81.3109" r="0.3000" /> 
</g>
<g style="fill:#FFFFFF; fill-opacity:1.0000; stroke:none;">
<circle cx="211.1919" cy="67.1759" r="0.2500" /> 
</g>
<g style="fill:#FFFFFF; fill-opacity:1.0000; stroke:none;">
<circle cx="259.4940" cy="73.8607" r="0.3000" /> 
</g>
<g style="fill:#FFFFFF; fill-opacity:1.0000; stroke:none;">
<circle cx="202.1201" cy="84.8700" r="0.3000" /> 
</g>
<g style="fill:#FFFFFF; fill-opacity:1.0000; stroke:none;">
<circle cx="152.7269" cy="78.4539" r="0.3000" /> 
</g>
<g style="fill:#FFFFFF; fill-opacity:1.0000; stroke:none;">
<circle cx="152.7079" cy="75.9069" r="0.3000" /> 
</g>
<g style="fill:#FFFFFF; fill-opacity:1.0000; stroke:none;">
<circle cx="202.1329" cy="81.1989" r="0.3000" /> 
</g>
<g style="fill:#FFFFFF; fill-opacity:1.0000; stroke:none;">
<circle cx="194.1269" cy="67.2088" r="0.3000" /> 
</g>
<g style="fill:#FFFFFF; fill-opacity:1.0000; stroke:none;">
<circle cx="150.4659" cy="64.5389" r="0.3000" /> 
</g>
<g style="fill:#FFFFFF; fill-opacity:1.0000; stroke:none;">
<circle cx="203.9419" cy="74.1499" r="0.3000" /> 
</g>
<g style="fill:#FFFFFF; fill-opacity:1.0000; stroke:none;">
<circle cx="150.4169" cy="69.6119" r="0.3000" /> 
</g>
<g style="fill:#FFFFFF; fill-opacity:1.0000; stroke:none;">
<circle cx="150.2951" cy="65.7053" r="0.3000" /> 
</g>
<g style="fill:#FFFFFF; fill-opacity:1.0000; stroke:none;">
<circle cx="204.0024" cy="72.2698" r="0.2500" /> 
</g>
<g style="fill:#FFFFFF; fill-opacity:1.0000; stroke:none;">
<circle cx="259.5434" cy="82.8609" r="0.3000" /> 
</g>
<g style="fill:#FFFFFF; fill-opacity:1.0000; stroke:none;">
<circle cx="205.7476" cy="84.8367" r="0.2500" /> 
</g>
<g style="fill:#FFFFFF; fill-opacity:1.0000; stroke:none;">
<circle cx="179.2524" cy="65.9718" r="0.2500" /> 
</g>
<g style="fill:#FFFFFF; fill-opacity:1.0000; stroke:none;">
<circle cx="152.7569" cy="64.4769" r="0.3000" /> 
</g>
<g style="fill:#FFFFFF; fill-opacity:1.0000; stroke:none;">
<circle cx="259.2173" cy="74.8860" r="0.3000" /> 
</g>
<g style="fill:#FFFFFF; fill-opacity:1.0000; stroke:none;">
<circle cx="204.0118" cy="75.9488" r="0.2500" /> 
</g>
<g style="fill:#FFFFFF; fill-opacity:1.0000; stroke:none;">
<circle cx="204.1534" cy="87.0008" r="0.2500" /> 
</g>
<g style="fill:#FFFFFF; fill-opacity:1.0000; stroke:none;">
<circle cx="259.1064" cy="85.1539" r="0.3000" /> 
</g>
<g style="fill:#FFFFFF; fill-opacity:1.0000; stroke:none;">
<circle cx="152.7299" cy="65.8259" r="0.3000" /> 
</g>
<g style="fill:#FFFFFF; fill-opacity:1.0000; stroke:none;">
<circle cx="203.9969" cy="70.4651" r="0.2500" /> 
</g>
<g style="fill:#FFFFFF; fill-opacity:1.0000; stroke:none;">
<circle cx="152.7139" cy="77.1949" r="0.3000" /> 
</g>
<g style="fill:#FFFFFF; fill-opacity:1.0000; stroke:none;">
<circle cx="202.1269" cy="83.0282" r="0.2500" /> 
</g>
<g style="fill:#FFFFFF; fill-opacity:1.0000; stroke:none;">
<circle cx="152.7289" cy="74.6239" r="0.3000" /> 
</g>
<g style="fill:#FFFFFF; fill-opacity:1.0000; stroke:none;">
<circle cx="203.9164" cy="81.2028" r="0.2500" /> 
</g>
<g style="fill:#FFFFFF; fill-opacity:1.0000; stroke:none;">
<circle cx="203.9664" cy="79.5248" r="0.2500" /> 
</g>
<g style="fill:#FFFFFF; fill-opacity:1.0000; stroke:none;">
<circle cx="152.7149" cy="73.1999" r="0.3000" /> 
</g>
<g style="fill:#FFFFFF; fill-opacity:1.0000; stroke:none;">
<circle cx="198.6969" cy="55.7009" r="0.3000" /> 
</g>
<g style="fill:#FFFFFF; fill-opacity:1.0000; stroke:none;">
<circle cx="152.8029" cy="56.8229" r="0.3000" /> 
</g>
<g style="fill:#FFFFFF; fill-opacity:1.0000; stroke:none;">
<circle cx="152.8249" cy="58.1239" r="0.3000" /> 
</g>
<g style="fill:#FFFFFF; fill-opacity:1.0000; stroke:none;">
<circle cx="202.3547" cy="55.6668" r="0.3000" /> 
</g>
<g style="fill:#FFFFFF; fill-opacity:1.0000; stroke:none;">
<circle cx="152.8549" cy="68.3169" r="0.3000" /> 
</g>
<g style="fill:#FFFFFF; fill-opacity:1.0000; stroke:none;">
<circle cx="200.2823" cy="77.5893" r="0.3000" /> 
</g>
<g style="fill:#FFFFFF; fill-opacity:1.0000; stroke:none;">
<circle cx="152.7419" cy="67.0239" r="0.3000" /> 
</g>
<g style="fill:#FFFFFF; fill-opacity:1.0000; stroke:none;">
<circle cx="203.9439" cy="77.6395" r="0.2500" /> 
</g>
<g style="fill:#FFFFFF; fill-opacity:1.0000; stroke:none;">
<circle cx="152.7829" cy="69.5609" r="0.3000" /> 
</g>
<g style="fill:#FFFFFF; fill-opacity:1.0000; stroke:none;">
<circle cx="196.7282" cy="77.6642" r="0.2500" /> 
</g>
<g style="fill:#FFFFFF; fill-opacity:1.0000; stroke:none;">
<circle cx="190.1084" cy="77.5108" r="0.2500" /> 
</g>
<g style="fill:#FFFFFF; fill-opacity:1.0000; stroke:none;">
<circle cx="152.7539" cy="70.8349" r="0.3000" /> 
</g>
<g style="fill:#FFFFFF; fill-opacity:1.0000; stroke:none;">
<circle cx="204.3605" cy="57.7786" r="0.2500" /> 
</g>
<g style="fill:#FFFFFF; fill-opacity:1.0000; stroke:none;">
<circle cx="152.8099" cy="59.3669" r="0.3000" /> 
</g>
<g style="fill:#FFFFFF; fill-opacity:1.0000; stroke:none;">
<circle cx="204.0004" cy="68.6358" r="0.2500" /> 
</g>
<g style="fill:#FFFFFF; fill-opacity:1.0000; stroke:none;">
<circle cx="152.7619" cy="60.6619" r="0.3000" /> 
</g>
<g style="fill:#FFFFFF; fill-opacity:1.0000; stroke:none;">
<circle cx="152.7199" cy="71.8779" r="0.3000" /> 
</g>
<g style="fill:#FFFFFF; fill-opacity:1.0000; stroke:none;">
<circle cx="179.5104" cy="77.2918" r="0.2500" /> 
</g>
<g style="fill:#FFFFFF; fill-opacity:1.0000; stroke:none;">
<circle cx="152.7799" cy="61.9339" r="0.3000" /> 
</g>
<g style="fill:#FFFFFF; fill-opacity:1.0000; stroke:none;">
<circle cx="200.4175" cy="66.5588" r="0.2500" /> 
</g>
<g style="fill:#FFFFFF; fill-opacity:1.0000; stroke:none;">
<circle cx="197.0769" cy="66.5588" r="0.2500" /> 
</g>
<g style="fill:#FFFFFF; fill-opacity:1.0000; stroke:none;">
<circle cx="152.7289" cy="63.1859" r="0.3000" /> 
</g>
<g style="fill:#FFFFFF; fill-opacity:1.0000; stroke:none;">
<circle cx="150.3763" cy="68.2920" r="0.3000" /> 
</g>
<g style="fill:#FFFFFF; fill-opacity:1.0000; stroke:none;">
<circle cx="198.5284" cy="77.6438" r="0.2500" /> 
</g>
<g style="fill:#FFFFFF; fill-opacity:1.0000; stroke:none;">
<circle cx="202.2981" cy="77.4550" r="0.2500" /> 
</g>
<g style="fill:#FFFFFF; fill-opacity:1.0000; stroke:none;">
<circle cx="150.0339" cy="67.0289" r="0.3000" /> 
</g>
<g style="fill:#FFFFFF; fill-opacity:1.0000; stroke:none;">
<circle cx="202.4163" cy="97.4657" r="0.2500" /> 
</g>
<g style="fill:#FFFFFF; fill-opacity:1.0000; stroke:none;">
<circle cx="153.9673" cy="83.5860" r="0.3000" /> 
</g>
<g style="fill:#FFFFFF; fill-opacity:1.0000; stroke:none;">
<circle cx="210.9829" cy="46.5829" r="0.2500" /> 
</g>
<g style="fill:#FFFFFF; fill-opacity:1.0000; stroke:none;">
<circle cx="153.6773" cy="81.0760" r="0.3000" /> 
</g>
<g style="fill:#FFFFFF; fill-opacity:1.0000; stroke:none;">
<circle cx="202.1374" cy="79.7720" r="0.2500" /> 
</g>
<g style="fill:#FFFFFF; fill-opacity:1.0000; stroke:none;">
<circle cx="150.3339" cy="72.1259" r="0.3000" /> 
</g>
<g style="fill:#FFFFFF; fill-opacity:1.0000; stroke:none;">
<circle cx="202.6154" cy="66.3316" r="0.2500" /> 
</g>
<g style="fill:#FFFFFF; fill-opacity:1.0000; stroke:none;">
<circle cx="150.3273" cy="62.0060" r="0.3000" /> 
</g>
<g style="fill:#FFFFFF; fill-opacity:1.0000; stroke:none;">
<circle cx="194.6009" cy="55.5699" r="0.3000" /> 
</g>
<g style="fill:#FFFFFF; fill-opacity:1.0000; stroke:none;">
<circle cx="152.7672" cy="55.4569" r="0.3000" /> 
</g>
<g style="fill:#FFFFFF; fill-opacity:1.0000; stroke:none;">
<circle cx="150.3989" cy="58.1479" r="0.3000" /> 
</g>
<g style="fill:#FFFFFF; fill-opacity:1.0000; stroke:none;">
<circle cx="200.5489" cy="55.6869" r="0.3000" /> 
</g>
<g style="fill:#FFFFFF; fill-opacity:1.0000; stroke:none;">
<circle cx="217.0818" cy="55.9060" r="0.2500" /> 
</g>
<g style="fill:#FFFFFF; fill-opacity:1.0000; stroke:none;">
<circle cx="262.7289" cy="55.7719" r="0.3000" /> 
</g>
<g style="fill:#FFFFFF; fill-opacity:1.0000; stroke:none;">
<circle cx="150.5727" cy="63.1104" r="0.3000" /> 
</g>
<g style="fill:#FFFFFF; fill-opacity:1.0000; stroke:none;">
<circle cx="198.5916" cy="66.5588" r="0.2500" /> 
</g>
<g style="fill:#FFFFFF; fill-opacity:1.0000; stroke:none;">
<circle cx="150.4889" cy="55.5919" r="0.3000" /> 
</g>
<g style="fill:#FFFFFF; fill-opacity:1.0000; stroke:none;">
<circle cx="179.6008" cy="54.9850" r="0.2500" /> 
</g>
<g style="fill:#FFFFFF; fill-opacity:1.0000; stroke:none;">
<circle cx="150.3539" cy="59.3679" r="0.3000" /> 
</g>
<g style="fill:#FFFFFF; fill-opacity:1.0000; stroke:none;">
<circle cx="204.0369" cy="55.8449" r="0.3000" /> 
</g>
<g style="fill:#FFFFFF; fill-opacity:1.0000; stroke:none;">
<circle cx="196.8989" cy="55.7199" r="0.3000" /> 
</g>
<g style="fill:#FFFFFF; fill-opacity:1.0000; stroke:none;">
<circle cx="150.3550" cy="56.8246" r="0.3000" /> 
</g>
<g style="fill:#FFFFFF; fill-opacity:1.0000; stroke:none;">
<circle cx="207.5701" cy="66.7209" r="0.2500" /> 
</g>
<g style="fill:#FFFFFF; fill-opacity:1.0000; stroke:none;">
<circle cx="259.3883" cy="69.7645" r="0.3000" /> 
</g>
<g style="fill:#FFFFFF; fill-opacity:1.0000; stroke:none;">
<circle cx="209.3554" cy="66.8428" r="0.2500" /> 
</g>
<g style="fill:#FFFFFF; fill-opacity:1.0000; stroke:none;">
<circle cx="259.4970" cy="70.9094" r="0.3000" /> 
</g>
<g style="fill:#FFFFFF; fill-opacity:1.0000; stroke:none;">
<circle cx="204.0024" cy="83.0598" r="0.2500" /> 
</g>
<g style="fill:#FFFFFF; fill-opacity:1.0000; stroke:none;">
<circle cx="262.9564" cy="81.1539" r="0.3000" /> 
</g>
<g style="fill:#FFFFFF; fill-opacity:1.0000; stroke:none;">
<circle cx="259.8893" cy="71.9054" r="0.3000" /> 
</g>
<g style="fill:#FFFFFF; fill-opacity:1.0000; stroke:none;">
<circle cx="217.2744" cy="67.1759" r="0.2500" /> 
</g>
<g style="fill:#FFFFFF; fill-opacity:1.0000; stroke:none;">
<circle cx="207.5984" cy="77.6688" r="0.2500" /> 
</g>
<g style="fill:#FFFFFF; fill-opacity:1.0000; stroke:none;">
<circle cx="259.1173" cy="77.3060" r="0.3000" /> 
</g>
<g style="fill:#FFFFFF; fill-opacity:1.0000; stroke:none;">
<circle cx="259.0873" cy="76.0360" r="0.3000" /> 
</g>
<g style="fill:#FFFFFF; fill-opacity:1.0000; stroke:none;">
<circle cx="205.7444" cy="77.6868" r="0.2500" /> 
</g>
<g style="fill:#FFFFFF; fill-opacity:1.0000; stroke:none;">
<circle cx="204.0243" cy="61.3469" r="0.2500" /> 
</g>
<g style="fill:#FFFFFF; fill-opacity:1.0000; stroke:none;">
<circle cx="259.1373" cy="63.3960" r="0.3000" /> 
</g>
<g style="fill:#FFFFFF; fill-opacity:1.0000; stroke:none;">
<circle cx="259.3573" cy="64.7060" r="0.3000" /> 
</g>
<g style="fill:#FFFFFF; fill-opacity:1.0000; stroke:none;">
<circle cx="204.0054" cy="63.1684" r="0.2500" /> 
</g>
<g style="fill:#FFFFFF; fill-opacity:1.0000; stroke:none;">
<circle cx="207.7424" cy="55.7146" r="0.2500" /> 
</g>
<g style="fill:#FFFFFF; fill-opacity:1.0000; stroke:none;">
<circle cx="259.3883" cy="57.0645" r="0.3000" /> 
</g>
<g style="fill:#FFFFFF; fill-opacity:1.0000; stroke:none;">
<circle cx="209.4982" cy="55.7090" r="0.2500" /> 
</g>
<g style="fill:#FFFFFF; fill-opacity:1.0000; stroke:none;">
<circle cx="259.3883" cy="58.3345" r="0.3000" /> 
</g>
<g style="fill:#FFFFFF; fill-opacity:1.0000; stroke:none;">
<circle cx="227.2799" cy="56.2739" r="0.2500" /> 
</g>
<g style="fill:#FFFFFF; fill-opacity:1.0000; stroke:none;">
<circle cx="260.0869" cy="60.8877" r="0.3000" /> 
</g>
<g style="fill:#FFFFFF; fill-opacity:1.0000; stroke:none;">
<circle cx="205.7744" cy="79.3308" r="0.2500" /> 
</g>
<g style="fill:#FFFFFF; fill-opacity:1.0000; stroke:none;">
<circle cx="150.3759" cy="70.9039" r="0.3000" /> 
</g>
<g style="fill:#FFFFFF; fill-opacity:1.0000; stroke:none;">
<circle cx="205.7534" cy="66.6988" r="0.2500" /> 
</g>
<g style="fill:#FFFFFF; fill-opacity:1.0000; stroke:none;">
<circle cx="259.3883" cy="68.4945" r="0.3000" /> 
</g>
<g style="fill:#FFFFFF; fill-opacity:1.0000; stroke:none;">
<circle cx="259.2793" cy="62.2005" r="0.3000" /> 
</g>
<g style="fill:#FFFFFF; fill-opacity:1.0000; stroke:none;">
<circle cx="204.0159" cy="59.5149" r="0.3000" /> 
</g>
<g style="fill:#FFFFFF; fill-opacity:1.0000; stroke:none;">
<circle cx="259.2473" cy="66.0060" r="0.3000" /> 
</g>
<g style="fill:#FFFFFF; fill-opacity:1.0000; stroke:none;">
<circle cx="204.0046" cy="65.0011" r="0.2500" /> 
</g>
<g style="fill:#FFFFFF; fill-opacity:1.0000; stroke:none;">
<circle cx="259.3152" cy="67.1582" r="0.3000" /> 
</g>
<g style="fill:#FFFFFF; fill-opacity:1.0000; stroke:none;">
<circle cx="203.9669" cy="66.7858" r="0.2500" /> 
</g>
<g style="fill:none;  stroke:#FFFFFF; stroke-width:0.2000; stroke-opacity:1;  stroke-linecap:round; stroke-linejoin:round;">
<path d="M213.4551 77.8630 L213.4844 77.8338 " />
<path d="M262.8183 79.9163 L262.7899 79.8879 " />
<path d="M262.8183 79.9245 L262.8183 79.9163 " />
<path d="M213.3617 77.8630 L213.4551 77.8630 " />
<path d="M219.0632 77.8616 L219.1154 77.9138 " />
<path d="M218.7496 77.8616 L219.0632 77.8616 " />
<path d="M218.9672 67.2942 L219.0162 67.2942 " />
<path d="M262.7820 72.3045 L262.7564 72.2789 " />
<path d="M262.8183 72.3045 L262.7820 72.3045 " />
<path d="M219.0162 67.2942 L219.0172 67.2952 " />
<path d="M219.0208 67.2915 L219.0172 67.2952 " />
<path d="M227.2323 67.2915 L219.0208 67.2915 " />
<path d="M211.1964 77.6983 L211.1979 77.6969 " />
<path d="M211.1964 77.7088 L211.1964 77.6983 " />
<path d="M205.7426 83.0236 L205.7426 83.0345 " />
<path d="M205.7426 83.0345 L205.7234 83.0538 " />
<path d="M211.2539 55.1770 L211.3078 55.1230 " />
<path d="M211.2539 55.6989 L211.2539 55.1770 " />
<path d="M203.9329 84.8414 L203.9329 84.8414 " />
<path d="M205.7289 81.2969 L205.7289 81.2969 " />
<path d="M205.7289 81.2190 L205.7289 81.2969 " />
<path d="M211.1891 66.7911 L211.1919 66.7939 " />
<path d="M211.1919 66.7939 L211.1919 67.1759 " />
<path d="M211.1891 66.6973 L211.1891 66.7911 " />
<path d="M202.1201 84.8544 L202.1201 84.8700 " />
<path d="M202.1201 84.8700 L202.1629 84.9129 " />
<path d="M202.1220 81.2098 L202.1329 81.1989 " />
<path d="M202.1080 81.2098 L202.1220 81.2098 " />
<path d="M194.1269 66.6739 L194.1269 67.2088 " />
<path d="M150.3763 64.4820 L150.4090 64.4820 " />
<path d="M194.1031 67.1850 L194.1269 67.2088 " />
<path d="M150.4090 64.4820 L150.4659 64.5389 " />
<path d="M194.1269 66.6739 L194.1031 66.6977 " />
<path d="M194.1031 66.6977 L194.1031 67.1850 " />
<path d="M150.3763 69.5713 L150.4169 69.6119 " />
<path d="M150.3763 69.5620 L150.3763 69.5713 " />
<path d="M203.9731 74.1187 L203.9419 74.1499 " />
<path d="M204.0165 74.1187 L203.9731 74.1187 " />
<path d="M203.9888 72.2834 L204.0024 72.2698 " />
<path d="M203.9834 72.2834 L203.9888 72.2834 " />
<path d="M205.8110 85.4380 L205.8110 85.3020 " />
<path d="M205.7958 85.4308 L205.8038 85.4308 " />
<path d="M205.8038 85.4308 L205.8110 85.4380 " />
<path d="M153.8063 64.4820 L153.8063 64.4820 " />
<path d="M188.5979 66.5551 L188.5736 66.5795 " />
<path d="M188.7388 66.5551 L188.5979 66.5551 " />
<path d="M203.9969 70.4651 L203.9969 70.4651 " />
<path d="M153.8063 65.7520 L153.8063 65.7520 " />
<path d="M153.8063 74.6420 L154.8963 74.6420 " />
<path d="M203.9159 81.2292 L203.9159 81.2032 " />
<path d="M203.9159 81.2032 L203.9164 81.2028 " />
<path d="M150.3200 73.3720 L150.2979 73.3499 " />
<path d="M150.3763 73.3720 L150.3200 73.3720 " />
<path d="M203.9448 79.5032 L203.9664 79.5248 " />
<path d="M153.8063 73.3720 L153.8063 73.3720 " />
<path d="M203.9368 79.5032 L203.9448 79.5032 " />
<path d="M153.8063 56.6459 L153.8063 56.8620 " />
<path d="M198.7115 55.6936 L198.7042 55.6936 " />
<path d="M152.7018 56.8620 L152.7063 56.8575 " />
<path d="M152.7063 56.8575 L152.7063 56.7569 " />
<path d="M198.7042 55.6936 L198.6969 55.7009 " />
<path d="M153.8063 58.1320 L152.6350 58.1320 " />
<path d="M152.6185 58.1155 L152.6185 58.0569 " />
<path d="M153.8375 58.1632 L153.8375 58.2959 " />
<path d="M152.6350 58.1320 L152.6185 58.1155 " />
<path d="M153.8063 68.2920 L153.7893 68.2920 " />
<path d="M200.2823 77.5902 L200.2823 77.5893 " />
<path d="M153.7893 68.2920 L153.7293 68.2320 " />
<path d="M200.3510 77.6590 L200.2823 77.5902 " />
<path d="M203.9439 77.6395 L203.9439 77.6395 " />
<path d="M154.3313 67.0220 L154.4074 66.9459 " />
<path d="M153.9973 69.5660 L153.9633 69.5320 " />
<path d="M196.7282 77.6642 L196.7282 77.6642 " />
<path d="M153.9633 69.5320 L153.7172 69.5320 " />
<path d="M194.4859 77.5251 L194.4859 77.5251 " />
<path d="M153.8063 59.4020 L153.8063 59.2049 " />
<path d="M152.8862 59.4419 L152.8809 59.4419 " />
<path d="M204.0849 57.7530 L204.1105 57.7786 " />
<path d="M152.9260 59.4020 L152.8862 59.4419 " />
<path d="M204.1105 57.7786 L204.3605 57.7786 " />
<path d="M153.8063 59.4020 L153.8063 59.4020 " />
<path d="M153.8063 60.6720 L153.8063 60.6720 " />
<path d="M203.9942 68.6300 L203.9946 68.6300 " />
<path d="M203.9946 68.6300 L204.0004 68.6358 " />
<path d="M188.7301 77.4885 L188.5664 77.3248 " />
<path d="M189.1116 77.4885 L188.7301 77.4885 " />
<path d="M153.8063 61.9420 L153.8063 61.8161 " />
<path d="M200.2603 66.7159 L200.4175 66.5588 " />
<path d="M153.8063 61.8161 L153.8600 61.7625 " />
<path d="M200.2603 66.8183 L200.2603 66.7159 " />
<path d="M153.8063 63.2120 L153.8063 63.2120 " />
<path d="M153.8063 63.2120 L153.8063 63.2149 " />
<path d="M197.0787 66.7267 L197.0769 66.7248 " />
<path d="M197.3047 66.7267 L197.0787 66.7267 " />
<path d="M197.0769 66.7248 L197.0769 66.5588 " />
<path d="M198.5284 77.6438 L198.5284 77.6438 " />
<path d="M153.8063 80.9920 L154.9683 80.9920 " />
<path d="M211.2750 50.2031 L210.9803 50.2031 " />
<path d="M210.9803 50.2031 L210.9773 50.2060 " />
<path d="M153.8063 80.9920 L153.7613 80.9920 " />
<path d="M153.8063 83.5320 L154.9683 83.5320 " />
<path d="M153.7613 80.9920 L153.6773 81.0760 " />
<path d="M150.3578 72.1020 L150.3339 72.1259 " />
<path d="M202.1129 79.4957 L201.8753 79.4957 " />
<path d="M150.3763 72.1020 L150.3578 72.1020 " />
<path d="M153.8063 55.5920 L154.8963 55.5920 " />
<path d="M194.6009 55.7009 L194.6009 55.5699 " />
<path d="M194.6142 55.7141 L194.6009 55.7009 " />
<path d="M194.6271 55.7141 L194.6142 55.7141 " />
<path d="M200.5470 55.6850 L200.5489 55.6869 " />
<path d="M150.3763 58.1320 L150.3830 58.1320 " />
<path d="M150.3830 58.1320 L150.3989 58.1479 " />
<path d="M200.5332 55.6850 L200.5470 55.6850 " />
<path d="M150.4888 55.5920 L150.4889 55.5919 " />
<path d="M187.2725 55.1991 L187.2656 55.2060 " />
<path d="M150.3763 55.5920 L150.4888 55.5920 " />
<path d="M204.0559 55.8259 L204.0369 55.8449 " />
<path d="M150.3763 59.3903 L150.3539 59.3679 " />
<path d="M150.3763 59.4020 L150.3763 59.3903 " />
<path d="M204.0744 55.8259 L204.0559 55.8259 " />
<path d="M196.9189 55.7069 L196.9119 55.7069 " />
<path d="M196.9119 55.7069 L196.8989 55.7199 " />
<path d="M150.3763 56.8620 L150.3550 56.8407 " />
<path d="M150.3550 56.8407 L150.3550 56.8246 " />
<path d="M207.5701 66.7740 L207.5701 66.7209 " />
<path d="M203.9236 83.0546 L203.9973 83.0546 " />
<path d="M203.9973 83.0546 L204.0024 83.0598 " />
<path d="M218.1730 66.7934 L214.5434 66.7934 " />
<path d="M213.3058 66.9223 L213.3054 66.9228 " />
<path d="M218.2156 66.8359 L218.1730 66.7934 " />
<path d="M213.3058 66.8935 L213.3058 66.9223 " />
<path d="M259.3883 60.8745 L259.6424 61.1285 " />
<path d="M259.8461 61.1285 L260.0869 60.8877 " />
<path d="M259.6424 61.1285 L259.8461 61.1285 " />
<path d="M205.7390 79.3661 L205.7744 79.3308 " />
<path d="M205.7390 79.4957 L205.7390 79.3661 " />
<path d="M150.3763 70.8320 L150.3763 70.9034 " />
<path d="M150.3763 70.9034 L150.3759 70.9039 " />
<path d="M262.8183 67.2245 L262.8183 67.2650 " />
<path d="M262.8183 67.2650 L262.7573 67.3260 " />
<path d="M205.7441 66.7189 L205.7441 66.7080 " />
<path d="M205.7441 66.7080 L205.7534 66.6988 " />
<path d="M204.0405 59.5416 L204.0405 59.5395 " />
<path d="M204.0405 59.5395 L204.0159 59.5149 " />
<path d="M204.0783 65.6254 L204.0364 65.6254 " />
</g> 
</svg>